<svg width="210" height="30" fill="none" xmlns="http://www.w3.org/2000/svg"><path d="M49 14.681c0 8.056-6.559 14.68-14.7 14.68-8.066 0-14.7-6.624-14.7-14.68C19.6 6.625 26.158 0 34.224 0 42.441 0 49 6.625 49 14.681Z" fill="#F9B50B"/><path d="M29.325 14.756c0-1.054-.151-2.108-.302-3.087h-9.046c.075-.527.226-.978.377-1.58h8.066c-.15-.528-.377-1.055-.603-1.582h-6.86c.226-.527.528-.978.83-1.58h5.2a10.286 10.286 0 0 0-1.13-1.582h-2.865c.453-.527.905-.978 1.508-1.505C21.937 1.43 18.47 0 14.625 0 6.634.226 0 6.625 0 14.681s6.558 14.68 14.7 14.68c3.845 0 7.237-1.505 9.875-3.839.528-.451.98-.978 1.508-1.58h-3.015a10.763 10.763 0 0 1-1.056-1.506h5.127c.301-.452.602-.98.829-1.581h-6.86a7.693 7.693 0 0 1-.603-1.582h8.066c.452-1.355.754-2.86.754-4.517Z" fill="#C8191C"/><path d="m19.902 18.445.226-1.355c-.075 0-.226.075-.377.075-.527 0-.603-.301-.527-.452l.452-2.71h.83l.225-1.506h-.753l.15-.903h-1.583s-.904 5.12-.904 5.722c0 .903.527 1.355 1.281 1.355.453 0 .83-.15.98-.226ZM20.43 15.96c0 2.183 1.507 2.71 2.713 2.71 1.131 0 1.659-.226 1.659-.226l.302-1.505s-.83.376-1.659.376c-1.734 0-1.432-1.28-1.432-1.28h3.166s.226-.979.226-1.43c0-.979-.528-2.259-2.262-2.259-1.507-.075-2.713 1.656-2.713 3.614Zm2.713-2.259c.83 0 .679.979.679 1.054h-1.734c.075-.075.226-1.054 1.055-1.054ZM33.018 18.445l.301-1.731s-.754.376-1.357.376c-1.055 0-1.583-.828-1.583-1.807 0-1.882.905-2.86 2.036-2.86.753 0 1.432.451 1.432.451l.226-1.656s-.905-.377-1.81-.377c-1.808 0-3.542 1.581-3.542 4.518 0 1.957.904 3.237 2.789 3.237.678.075 1.508-.15 1.508-.15ZM11.383 12.272a6.113 6.113 0 0 0-1.884.301l-.226 1.355s.678-.3 1.733-.3c.528 0 .98.074.98.526 0 .301-.075.377-.075.377h-.678c-1.357 0-2.79.527-2.79 2.333 0 1.43.905 1.732 1.508 1.732 1.055 0 1.583-.677 1.659-.677l-.076.602h1.282l.603-4.292c0-1.882-1.508-1.957-2.036-1.957Zm.302 3.463c0 .226-.15 1.506-1.056 1.506-.452 0-.603-.377-.603-.602 0-.377.227-.904 1.433-.904h.226ZM14.926 18.595c.377 0 2.337.076 2.337-2.033 0-1.957-1.885-1.58-1.885-2.334 0-.376.302-.527.83-.527.225 0 1.055.076 1.055.076l.226-1.43s-.528-.151-1.508-.151c-1.13 0-2.337.452-2.337 2.033 0 1.806 1.96 1.656 1.96 2.333 0 .452-.528.527-.904.527-.679 0-1.433-.225-1.433-.225l-.226 1.43c.15.15.603.301 1.885.301ZM45.985 11.067l-.302 2.108s-.603-.753-1.508-.753c-1.432 0-2.638 1.731-2.638 3.764 0 1.28.603 2.56 1.96 2.56.905 0 1.508-.602 1.508-.602l-.076.527h1.583l1.131-7.454-1.658-.15Zm-.754 4.065c0 .828-.377 1.958-1.282 1.958-.527 0-.829-.452-.829-1.28 0-1.28.528-2.033 1.282-2.033.527.075.829.452.829 1.355ZM2.863 18.52l.905-5.571.15 5.57h1.056l2.035-5.57-.829 5.57H7.84l1.281-7.453H6.557L4.974 15.66l-.075-4.593H2.637L1.355 18.52h1.508Z" fill="#F8F7F3"/><path d="M26.988 18.52c.452-2.56.527-4.668 1.658-4.291.151-.979.377-1.43.528-1.807h-.302c-.678 0-1.281.903-1.281.903l.15-.828h-1.507l-.98 6.023h1.734ZM36.637 12.272a6.113 6.113 0 0 0-1.884.301l-.227 1.355s.679-.3 1.734-.3c.528 0 .98.074.98.526 0 .301-.075.377-.075.377h-.678c-1.357 0-2.79.527-2.79 2.333 0 1.43.905 1.732 1.508 1.732 1.055 0 1.583-.677 1.658-.677l-.075.602h1.432l.603-4.292c0-1.882-1.658-1.957-2.186-1.957Zm.377 3.463c0 .226-.15 1.506-1.055 1.506-.453 0-.603-.377-.603-.602 0-.377.226-.904 1.432-.904h.226ZM40.03 18.52c.453-2.56.528-4.668 1.66-4.291.15-.979.376-1.43.527-1.807h-.302c-.678 0-1.281.903-1.281.903l.15-.828h-1.507l-.98 6.023h1.734Z" fill="#F8F7F3"/><path d="M123.749 5.352h-3.973c-1.201 0-2.125.361-2.68 1.538l-7.576 16.918h5.359s.924-2.262 1.109-2.805h6.56c.185.633.647 2.714.647 2.714H128l-4.251-18.365Zm-6.283 11.851c.462-1.085 2.033-5.157 2.033-5.157 0 .09.462-1.085.647-1.718l.369 1.628s1.017 4.433 1.201 5.338h-4.25v-.09ZM109.722 18.215c0 3.859-3.461 6.431-8.835 6.431-2.277 0-4.463-.459-5.647-1.01l.729-4.227.637.276c1.64.735 2.733 1.01 4.737 1.01 1.457 0 3.005-.55 3.005-1.837 0-.827-.637-1.378-2.641-2.297-1.913-.919-4.463-2.389-4.463-5.053 0-3.676 3.552-6.156 8.562-6.156 1.913 0 3.552.367 4.554.826l-.729 4.043-.364-.367c-.911-.368-2.095-.735-3.826-.735-1.912.092-2.823.918-2.823 1.654 0 .827 1.093 1.47 2.823 2.297 2.915 1.378 4.281 2.94 4.281 5.145Z" fill="#3362AB"/><path d="m65 5.728.09-.376h7.78c1.086 0 1.9.376 2.171 1.599l1.719 8.468c-1.719-4.517-5.7-8.186-11.76-9.691Z" fill="#F9B50B"/><path d="m87.68 5.442-7.83 18.366h-5.31l-4.5-15.38c3.24 2.08 5.94 5.337 6.93 7.6l.54 1.899 4.86-12.575h5.31v.09ZM90.107 5.352h5.133l-3.267 18.456H86.84l3.267-18.456Z" fill="#3362AB"/><path d="M202.56 5.47h-12.441c.725 4.092 4.711 7.942 9.059 7.942h9.905c.121-.36.12-.962.12-1.323 0-3.61-3.019-6.618-6.643-6.618Z" fill="url(#a)"/><path d="M191.711 14.206V24.53h6.263v-5.473h5.512c3.006 0 5.637-2.114 6.514-4.85h-18.289ZM170.24 5.47v19.06h5.383s1.346 0 2.08-1.361c3.67-7.302 4.771-9.53 4.771-9.53h.734V24.53h6.117V5.47h-5.383s-1.346.124-2.08 1.362c-3.058 6.312-4.771 9.53-4.771 9.53h-.734V5.47h-6.117ZM144 24.53V5.47h6.133s1.717 0 2.699 2.724c2.453 7.178 2.698 8.168 2.698 8.168s.491-1.733 2.699-8.168c.981-2.723 2.698-2.723 2.698-2.723h6.133v19.06h-6.133V14.257h-.736l-3.434 10.272h-2.699l-3.434-10.272h-.736V24.53H144Z" fill="#4FAD50"/><defs><linearGradient id="a" x1="143.926" y1="15.137" x2="209.852" y2="15.137" gradientUnits="userSpaceOnUse"><stop stop-color="#27B1E6"/><stop offset="1" stop-color="#148ACA"/></linearGradient></defs></svg>