<svg width="92" height="24" fill="none" xmlns="http://www.w3.org/2000/svg"><path fill-rule="evenodd" clip-rule="evenodd" d="M4 0a4 4 0 0 0-4 4v16a4 4 0 0 0 4 4h16a4 4 0 0 0 4-4V4a4 4 0 0 0-4-4H4Zm14.855 7.916c.492 0 .603.256.492.609v-.001c-.173.808-1.614 2.95-2.06 3.613-.086.127-.135.2-.132.2-.175.287-.238.415 0 .736.086.118.27.3.478.506.215.213.457.452.65.679.699.8 1.24 1.473 1.382 1.937.127.465-.095.705-.572.705h-1.636c-.434 0-.658-.251-1.134-.786-.204-.23-.455-.511-.788-.847-.97-.945-1.399-1.073-1.637-1.073-.333 0-.429.08-.429.56v1.49c0 .4-.127.64-1.175.64-1.732 0-3.654-1.058-5.004-3.027-2.034-2.882-2.59-5.06-2.59-5.493 0-.24.08-.464.556-.464h1.652c.413 0 .573.176.731.643.81 2.354 2.16 4.42 2.716 4.42.208 0 .302-.097.302-.625V9.902c-.04-.692-.278-.993-.455-1.217-.11-.139-.196-.247-.196-.4 0-.193.159-.385.413-.385h2.574c.35 0 .476.192.476.608v3.284c0 .352.143.48.255.48.206 0 .38-.128.762-.512 1.176-1.33 2.018-3.38 2.018-3.38.11-.24.301-.464.714-.464h1.637ZM38 0a4 4 0 0 0-4 4v16a4 4 0 0 0 4 4h16a4 4 0 0 0 4-4V4a4 4 0 0 0-4-4H38Zm13.62 7.873c.1-1.15-1.113-.676-1.113-.676-.9.372-1.827.75-2.764 1.132-2.896 1.181-5.886 2.401-8.434 3.602-1.383.507-.574 1.014-.574 1.014l2.193.677c1.012.304 1.551-.034 1.551-.034l4.722-3.213c1.686-1.15 1.282-.203.877.203l-3.541 3.382c-.54.473-.27.88-.034 1.082.669.59 2.313 1.67 3.032 2.141.188.124.313.205.34.226.17.136 1.08.744 1.687.61.607-.136.675-.914.675-.914l.809-5.31c.121-.918.26-1.802.37-2.508.106-.672.187-1.183.203-1.414ZM76.725 17.667a6.885 6.885 0 0 0 3.5.958c3.783 0 6.867-3.075 6.85-6.858a6.817 6.817 0 0 0-2.008-4.859 6.794 6.794 0 0 0-4.85-2.016c-3.784 0-6.867 3.083-6.867 6.866a6.887 6.887 0 0 0 1.05 3.65l.167.259-.692 2.533 2.6-.683.25.15Zm6.992-4.309.275.134c.04.02.079.037.114.053.14.065.23.107.277.18.059.092.059.5-.116.983-.167.484-.992.925-1.392.984-.358.05-.808.075-1.3-.084a10.09 10.09 0 0 1-1.175-.433c-1.976-.852-3.304-2.794-3.505-3.087l-.02-.03-.002-.002c-.106-.141-.84-1.12-.84-2.13 0-.939.454-1.437.669-1.672l.048-.054a.749.749 0 0 1 .55-.258h.4l.045.001c.12.002.274.003.422.357.166.417.583 1.433.633 1.533.05.1.083.217.017.359l-.017.033c-.057.116-.1.202-.192.308l-.1.12a3.714 3.714 0 0 1-.208.239c-.108.108-.208.216-.092.425.125.208.534.883 1.15 1.433.67.599 1.255.85 1.54.973.049.02.089.038.119.052.208.108.333.092.45-.05.116-.133.508-.6.65-.808.141-.2.275-.167.466-.1.139.056.752.355 1.134.541Z" fill="#F8F7F3"/><path fill-rule="evenodd" clip-rule="evenodd" d="M72 0a4 4 0 0 0-4 4v16a4 4 0 0 0 4 4h16a4 4 0 0 0 4-4V4a4 4 0 0 0-4-4H72Zm11.39 4.125a8.18 8.18 0 0 1 2.677 1.8 8.207 8.207 0 0 1 2.416 5.842c0 4.55-3.708 8.258-8.258 8.258a8.26 8.26 0 0 1-3.95-1.008l-4.375 1.15 1.167-4.284a8.282 8.282 0 0 1-1.1-4.125c0-4.55 3.708-8.258 8.258-8.258a8.18 8.18 0 0 1 3.165.625Z" fill="#F8F7F3"/></svg>